<?xml version="1.0" encoding="utf-8"?>
<!-- Generator: Adobe Illustrator 16.0.0, SVG Export Plug-In . SVG Version: 6.00 Build 0)  -->
<!DOCTYPE svg PUBLIC "-//W3C//DTD SVG 1.1//EN" "http://www.w3.org/Graphics/SVG/1.1/DTD/svg11.dtd">
<svg version="1.1" id="Layer_1" xmlns="http://www.w3.org/2000/svg" xmlns:xlink="http://www.w3.org/1999/xlink" x="0px" y="0px"
	 width="112.253px" height="26.833px" viewBox="0 0 112.253 26.833" enable-background="new 0 0 112.253 26.833"
	 xml:space="preserve">
<circle fill="none" stroke="#A8A8A8" stroke-width="0.9921" stroke-miterlimit="10" cx="42.507" cy="13.714" r="1.438"/>
<circle fill="none" stroke="#A8A8A8" stroke-width="0.9921" stroke-miterlimit="10" cx="33.814" cy="23.396" r="1.438"/>
<circle fill="none" stroke="#A8A8A8" stroke-width="0.9921" stroke-miterlimit="10" cx="45.237" cy="17.153" r="1.438"/>
<g>
	<path fill="none" stroke="#A8A8A8" stroke-width="0.9921" stroke-miterlimit="10" d="M44.299,13.714h1.25
		c3.706,0,6.98-2.29,8.699-5.278l0,0c1.729-2.951,4.961-5.254,8.64-5.254h1.307"/>
</g>
<g>
	<path fill="none" stroke="#A8A8A8" stroke-width="0.9921" stroke-miterlimit="10" d="M34.047,22.283L34.047,22.283
		c1.729-2.95,5.156-5.059,8.835-5.059h0.916"/>
</g>
<line fill="none" stroke="#A8A8A8" stroke-width="0.9921" stroke-miterlimit="10" x1="1" y1="13.714" x2="40.789" y2="13.714"/>
<circle fill="none" stroke="#A8A8A8" stroke-width="0.9921" stroke-miterlimit="10" cx="68.327" cy="7.862" r="1.438"/>
<circle fill="none" stroke="#A8A8A8" stroke-width="0.9921" stroke-miterlimit="10" cx="65.597" cy="2.864" r="1.439"/>
<g>
	<path fill="none" stroke="#A8A8A8" stroke-width="0.9921" stroke-miterlimit="10" d="M66.534,7.862h-1.25
		c-3.706,0-6.981,1.707-8.699,4.692l0,0c-1.729,2.952-4.961,4.67-8.64,4.67H46.64"/>
</g>
<line fill="none" stroke="#A8A8A8" stroke-width="0.9921" stroke-miterlimit="10" x1="109.834" y1="7.862" x2="70.045" y2="7.862"/>
</svg>
